<?xml version="1.0" encoding="UTF-8" standalone="no"?>
<!-- Created with Inkscape (http://www.inkscape.org/) -->

<svg
   width="35.933205mm"
   height="25.055319mm"
   viewBox="0 0 35.933205 25.055319"
   version="1.1"
   id="svg1"
   xml:space="preserve"
   xmlns="http://www.w3.org/2000/svg"
   xmlns:svg="http://www.w3.org/2000/svg"><defs
     id="defs1" /><g
     id="layer1"
     transform="translate(-71.159474,-91.389768)"><path
       id="rect1"
       style="fill:#ff9999;fill-opacity:1;stroke-width:0.493213"
       d="M 75.154493,91.300093 A 3.4100001,3.4100001 0 0 0 71.83945,94.10974 l 15.368571,9.73997 c 0.148404,0.0941 0.301857,0.17624 0.457853,0.25064 0,0 1.19779,0.65019 1.835547,0.65319 0.65195,0.003 1.882056,-0.64648 1.882056,-0.64648 0.148155,-0.07 0.294152,-0.14639 0.435632,-0.23409 l 15.787151,-9.7808 0.015,0.02429 a 3.4100001,3.4100001 0 0 0 -3.35329,-2.816365 z m 32.523077,4.470528 -14.72468,9.124509 14.72468,7.38921 z m -35.933204,0.01292 v 16.488919 l 14.373283,-7.37785 z m 16.004191,9.922389 -15.862081,8.13852 a 3.4100001,3.4100001 0 0 0 3.268017,2.51096 h 29.113467 a 3.4100001,3.4100001 0 0 0 3.26647,-2.50527 l -16.227434,-8.14111 c -1.157066,0.37083 -2.402639,0.36955 -3.558439,-0.003 z"
       transform="translate(-0.58488486,0.08967769)" /></g></svg>
