<?xml version="1.0" encoding="UTF-8" standalone="no"?>
<!-- Created with Inkscape (http://www.inkscape.org/) -->

<svg
   width="118.47354mm"
   height="78.896706mm"
   viewBox="0 0 118.47354 78.896706"
   version="1.1"
   id="svg1"
   xmlns="http://www.w3.org/2000/svg"
   xmlns:svg="http://www.w3.org/2000/svg">
  <defs
     id="defs1" />
  <g
     id="layer1"
     transform="translate(-44.567914,-10.649858)">
    <path
       d="m 123.10164,11.691406 c -6.36098,-0.358366 -11.62817,3.074976 -18.43945,10.103516 -6.808072,7.025233 -15.264609,17.706456 -28.164063,32.160156 -6.632295,6.393282 -12.098478,10.001426 -16.41211,11.636719 -4.317411,1.636726 -7.433403,1.31626 -9.568359,-0.04297 -2.134956,-1.359229 -3.364272,-3.828097 -3.693359,-6.730469 -0.329087,-2.902371 0.260202,-6.205174 1.705078,-9.078125 3.610894,-7.179801 11.068614,-10.988573 15.771484,-10.65625 1.175718,0.08308 2.165987,0.412926 2.900391,0.96875 0.734403,0.555825 1.236779,1.331558 1.443359,2.423828 0.413161,2.184542 -0.467477,5.689335 -3.623047,10.529297 l 0.976563,0.636719 c 3.239818,-4.969181 4.298812,-8.697892 3.791015,-11.382812 -0.253898,-1.34246 -0.928158,-2.41077 -1.884765,-3.134766 -0.956607,-0.723996 -2.172744,-1.107956 -3.519531,-1.203125 -5.387152,-0.380677 -13.074901,3.696191 -16.896485,11.294922 -1.547912,3.077826 -2.179779,6.579342 -1.822265,9.732422 0.357513,3.153079 1.722281,5.988913 4.224609,7.582031 2.502328,1.593118 6.067525,1.872201 10.609375,0.150391 4.54185,-1.721811 10.10989,-5.42892 16.822266,-11.902344 l 0.01563,-0.01367 0.01367,-0.01758 C 90.282675,40.260012 98.764287,29.556036 105.5,22.605469 c 5.37477,-5.546213 9.58959,-8.560178 14.07031,-9.423828 -0.60902,0.163186 -3.78412,1.370231 -5.89642,3.721051 -1.76082,1.959649 -5.22368,6.558274 -6.96257,10.012285 C 103.23354,33.823 99.936377,40.120996 95.796093,49.364509 92.620716,56.453784 85.681334,70.20443 80.56719,77.142975 79.772406,78.221287 73.166524,87.377594 68.868113,87.380241 l -0.0039,1.166015 c 12.738903,0.0437 22.729918,-4.618594 30.707036,-11.603515 7.977111,-6.984922 15.271641,-18.335776 20.133841,-27.60485 4.8622,-9.269075 8.60351,-18.523902 12.03906,-25.421875 1.71778,-3.448987 3.36409,-6.308789 4.99805,-8.265625 1.79828,-2.153636 4.22488,-2.470345 5.67864,-2.557161 -1.93176,0.625938 -4.80969,4.069156 -6.22755,6.524961 -4.43541,7.68235 -13.06624,29.23958 -10.74303,38.869999 0.29864,1.103132 0.8038,4.446508 2.95045,6.666049 2.6357,2.725199 7.4656,2.680124 10.30702,2.700222 7.21844,0.05106 12.13101,-3.208089 15.60937,-7.40039 3.47836,-4.192301 5.58723,-9.311306 7.39063,-13.089844 l -1.05079,-0.5 c -1.82642,3.826788 -3.9088,8.835206 -7.23632,12.845703 -3.32752,4.010498 -7.83633,7.029057 -14.70508,6.980469 -2.72527,-0.01928 -4.8595,-0.450028 -6.30469,-1.748047 -1.44519,-1.298019 -2.33085,-3.554602 -2.34766,-7.533203 -0.0281,-6.640631 5.42363,-28.578619 13.67451,-41.79148 1.594,-2.552615 3.30622,-2.667155 4.13327,-2.667155 0.0174,0 0.0409,-1.250441 0.0409,-1.300653 l -4.59645,1.4e-5 c -2.0997,7e-6 -5.72403,1.166205 -7.4677,3.254427 -1.74367,2.088222 -3.41135,5.008336 -5.14649,8.492187 -3.47028,6.967703 -7.19923,16.196301 -12.02734,25.400391 -4.82811,9.20409 -12.06137,20.43137 -19.870171,27.268912 -6.289924,5.507586 -16.394336,10.50527 -19.34626,9.318385 1.208004,-0.845316 4.40709,-2.766049 7.853094,-7.365773 5.270283,-7.034771 10.988736,-19.705942 15.127007,-28.983243 4.13827,-9.2773 7.83067,-18.516937 11.26953,-25.347656 1.71943,-3.415359 4.1576,-7.17866 4.96485,-8.121094 1.60552,-1.874378 3.04155,-2.800799 4.35546,-2.71289"
       id="path2"
       style="fill:#99ccff;fill-opacity:1;stroke:#99ccff;stroke-width:2;stroke-linecap:butt;stroke-linejoin:miter;stroke-miterlimit:4.3;stroke-dasharray:none;stroke-opacity:1;paint-order:normal" />
    <path
       style="fill:none;fill-opacity:1;stroke:#99ccff;stroke-width:3;stroke-linecap:butt;stroke-linejoin:miter;stroke-miterlimit:4.3;stroke-dasharray:none;stroke-opacity:1;paint-order:normal"
       d="m 109.86178,57.1812 c 30.7948,0 39.56165,10.647179 39.56165,18.68917 0,8.750497 -8.54932,19.408061 -20.99042,5.412776"
       id="path4" />
  </g>
</svg>
