<?xml version="1.0" encoding="UTF-8" standalone="no"?>
<!-- Created with Inkscape (http://www.inkscape.org/) -->

<svg
   width="19.011719mm"
   height="34.148312mm"
   viewBox="0 0 19.011719 34.148312"
   version="1.1"
   id="svg1"
   xmlns="http://www.w3.org/2000/svg"
   xmlns:svg="http://www.w3.org/2000/svg">
  <defs
     id="defs1" />
  <g
     id="layer1"
     transform="translate(-48.488278,-94.958327)">
    <path
       d="m 48.488281,98.083331 v 14.761979 8.13067 1.97957 6.15109 h 5.011718 l -2.011718,-6.15109 v -22.36571 a 1.005859,1.005859 135 0 1 1.005859,-1.005856 h 0 l 3e-6,0 A 1.0058565,1.0058565 45.000001 0 1 53.5,100.58984 l -10e-7,18.37825 a 1.2027477,1.2027477 38.723772 0 0 1.464145,1.174 l 6.059855,-1.34926 a 1.870889,1.870889 128.72377 0 0 1.464282,-1.82617 v -16.37682 a 1.005859,1.005859 135 0 1 1.005859,-1.005856 l 3e-6,0 A 1.0058565,1.0058565 45 0 1 64.5,100.58984 v 22.36571 l -2.01172,6.15109 H 67.5 v -6.15109 l -2e-6,-26.824422 a 1.1727987,1.1727987 38.032748 0 0 -1.455223,-1.138286 l -2.550636,0.632849 -2.547656,0.609458 a 1.9003297,1.9003297 128.27319 0 0 -1.458202,1.848181 l 0,15.88412 a 1.4993495,1.4993495 135 0 1 -1.49935,1.49935 1.4944766,1.4944766 45.212194 0 1 -1.488931,-1.5 l -10e-7,-17.835018 A 1.1733108,1.1733108 38.032751 0 0 55.04414,94.993 l -2.550001,0.632691 -2.547656,0.609458 a 1.9003297,1.9003297 128.27319 0 0 -1.458202,1.848182 z"
       id="path11"
       style="display:inline;fill:#99ccff;fill-opacity:1;stroke:none;stroke-opacity:1" />
  </g>
</svg>
